<?xml version="1.0" standalone="no"?>
<!DOCTYPE svg PUBLIC "-//W3C//DTD SVG 20010904//EN"
 "http://www.w3.org/TR/2001/REC-SVG-20010904/DTD/svg10.dtd">
<svg version="1.0" xmlns="http://www.w3.org/2000/svg"
 width="256.000000pt" height="256.000000pt" viewBox="0 0 256.000000 256.000000"
 preserveAspectRatio="xMidYMid meet">
<metadata>
Created by potrace 1.15, written by Peter Selinger 2001-2017
</metadata>
<g transform="translate(0.000000,256.000000) scale(0.100000,-0.100000)"
fill="#000000" stroke="none">
<path d="M1410 1595 l0 -35 -107 -1 c-60 -1 -137 -4 -173 -8 l-65 -6 -6 -115
c-4 -63 -7 -145 -8 -182 l-1 -68 -39 0 c-22 0 -43 -5 -46 -11 -4 -5 -4 -37 0
-70 l7 -59 39 0 39 0 0 -188 c0 -133 4 -192 12 -200 8 -8 64 -12 185 -12 l173
0 0 -30 0 -30 65 0 65 0 0 30 0 30 185 0 185 0 0 200 0 200 40 0 40 0 0 65 0
65 -40 0 -40 0 -2 188 -3 187 -130 6 c-71 4 -151 7 -177 8 -48 1 -48 1 -48 36
l0 35 -75 0 -75 0 0 -35z m10 -225 l5 -45 60 0 60 0 3 48 3 47 114 0 c135 0
127 9 123 -145 l-3 -100 -37 -3 -38 -3 0 -64 0 -64 38 -3 37 -3 3 -105 c4
-160 13 -150 -123 -150 l-115 0 0 50 0 50 -65 0 -65 0 0 -50 0 -50 -115 0
-115 0 0 130 0 130 40 0 40 0 0 65 0 65 -40 0 -40 0 0 125 0 126 113 -3 112
-3 5 -45z"/>
<path d="M71 986 l-1 -330 32 45 c18 24 37 47 43 51 12 8 20 381 10 476 l-7
62 -33 0 c-18 0 -36 6 -38 13 -3 6 -6 -136 -6 -317z"/>
<path d="M284 1102 c-39 -3 -42 -5 -48 -40 -3 -20 -6 -151 -6 -291 l0 -255 24
35 c14 19 39 52 55 75 l31 41 -1 154 c-1 85 -4 183 -8 219 l-6 65 -41 -3z"/>
<path d="M415 959 c-3 -13 -4 -150 -3 -304 l3 -280 132 180 c73 99 138 187
145 195 16 18 51 66 110 150 l45 65 -205 -3 c-155 -2 -207 0 -213 10 -5 8 -10
4 -14 -13z"/>
</g>
</svg>
