<svg xmlns="http://www.w3.org/2000/svg" xmlns:pdf="http://ns.adobe.com/pdf/1.3/" xmlns:x="adobe:ns:meta/" xmlns:xap="http://ns.adobe.com/xap/1.0/" xmlns:xapGImg="http://ns.adobe.com/xap/1.0/g/img/" xmlns:xapMM="http://ns.adobe.com/xap/1.0/mm/" xmlns:xlink="http://www.w3.org/1999/xlink" xmlns:xml="http://www.w3.org/XML/1998/namespace" style="overflow:visible;enable-background:new 0 0 256 256" id="svg548" width="64" height="64" viewBox="0 0 256 256" xml:space="preserve"><defs id="defs584"><linearGradient id="XMLID_5_" x1="127.954" x2="127.954" y1="47.327" y2="212.988" gradientUnits="userSpaceOnUse"><stop style="stop-color:#090" id="stop556" offset="0"/><stop style="stop-color:#334966" id="stop557" offset="1"/></linearGradient><linearGradient id="XMLID_6_" x1="127.954" x2="127.954" y1="77.207" y2="307.606" gradientUnits="userSpaceOnUse"><stop style="stop-color:#3c3" id="stop563" offset="0"/><stop style="stop-color:#366" id="stop564" offset="1"/></linearGradient><linearGradient id="XMLID_7_" x1="127.954" x2="127.954" y1="77.367" y2="307.363" gradientUnits="userSpaceOnUse"><stop style="stop-color:#cf6" id="stop570" offset=".006"/><stop style="stop-color:#090" id="stop571" offset="1"/></linearGradient><radialGradient id="XMLID_8_" cx="54.273" cy="89.348" r="120.813" fx="54.273" fy="89.348" gradientUnits="userSpaceOnUse"><stop style="stop-color:#fff;stop-opacity:1" id="stop577" offset="0"/><stop style="stop-color:#92ff00;stop-opacity:1" id="stop578" offset="1"/></radialGradient></defs><metadata id="metadata549"><xpacket>begin=&apos; &apos; id=&apos;W5M0MpCehiHzreSzNTczkc9d&apos;</xpacket><x:xmpmeta x:xmptk="XMP toolkit 3.0-29, framework 1.6"/><xpacket>end=&apos;w&apos;</xpacket></metadata><rect id="_x3C_Slice_x3E_" width="256" height="256" style="font-size:12;fill:none"/><path style="font-size:12;opacity:.2" id="path552" d="M221.848,47.811c0,0-130.558,89.471-132.578,90.855c-1.689-1.683-41.779-41.595-41.779-41.595 c-2.978-2.968-6.891-4.068-10.467-2.943c-3.89,1.232-6.403,4.005-7.08,7.809l-0.42,2.363c-0.135,0.765-0.122,1.532,0.037,2.285 l0.589,2.802l0.408,1.247l46.254,101.694c1.449,3.183,4.375,5.427,7.83,6.001c3.441,0.579,6.936-0.598,9.349-3.144 L235.225,65.893c2.066-2.169,3.252-5.263,3.252-8.481l-0.129-1.236l-0.572-2.723c-0.697-3.33-2.852-5.804-6.227-7.157 C229.395,45.431,225.963,44.991,221.848,47.811z"/><path style="font-size:12;opacity:.2" id="path553" d="M218.848,47.811c0,0-130.558,89.471-132.578,90.855c-1.689-1.683-41.779-41.595-41.779-41.595 c-2.978-2.968-6.891-4.068-10.467-2.943c-3.89,1.232-6.403,4.005-7.08,7.809l-0.42,2.363c-0.135,0.765-0.122,1.532,0.037,2.285 l0.589,2.802l0.408,1.247l46.254,101.694c1.449,3.183,4.375,5.427,7.83,6.001c3.441,0.579,6.936-0.598,9.349-3.144 L232.225,65.893c2.066-2.169,3.252-5.263,3.252-8.481l-0.129-1.236l-0.572-2.723c-0.697-3.33-2.852-5.804-6.227-7.157 C226.395,45.431,222.963,44.991,218.848,47.811z"/><path style="font-size:12;opacity:.2" id="path554" d="M217.848,45.811c0,0-130.558,89.471-132.578,90.855c-1.689-1.683-41.779-41.595-41.779-41.595 c-2.978-2.968-6.891-4.068-10.467-2.943c-3.89,1.232-6.403,4.005-7.08,7.809l-0.42,2.363c-0.135,0.765-0.122,1.532,0.037,2.285 l0.589,2.802l0.408,1.247l46.254,101.694c1.449,3.183,4.375,5.427,7.83,6.001c3.441,0.579,6.936-0.598,9.349-3.144 L231.225,63.893c2.066-2.169,3.252-5.263,3.252-8.481l-0.129-1.236l-0.572-2.723c-0.697-3.33-2.852-5.804-6.227-7.157 C225.395,43.431,221.963,42.991,217.848,45.811z"/><path style="font-size:12;fill:url(#XMLID_5_)" id="path561" d="M215.848,43.811c0,0-130.558,89.471-132.578,90.855 c-1.689-1.683-41.779-41.595-41.779-41.595c-2.978-2.968-6.891-4.068-10.467-2.943c-3.89,1.232-6.403,4.005-7.08,7.809 l-0.42,2.363c-0.135,0.765-0.122,1.532,0.037,2.285l0.589,2.802l0.408,1.247l46.254,101.694c1.449,3.183,4.375,5.427,7.83,6.001 c3.441,0.579,6.936-0.598,9.349-3.144L229.225,61.893c2.066-2.169,3.252-5.263,3.252-8.481l-0.129-1.236l-0.572-2.723 c-0.697-3.33-2.852-5.804-6.227-7.157C223.395,41.431,219.963,40.991,215.848,43.811z"/><path style="font-size:12;fill:url(#XMLID_6_)" id="path568" d="M219.239,48.761c0,0-135.454,92.824-136.679,93.665 c-5.106-5.083-45.302-45.103-45.302-45.103c-1.187-1.182-2.833-1.976-4.431-1.472c-1.597,0.505-2.684,1.485-2.977,3.135 l-0.42,2.364l0.589,2.802c0.007,0.016,46.252,101.691,46.252,101.691c0.621,1.363,1.876,2.321,3.354,2.567 c1.477,0.247,2.978-0.265,4.008-1.353L224.865,57.77c1.021-1.072,1.611-2.665,1.611-4.358l-0.572-2.728 c-0.309-1.471-1.192-2.26-2.588-2.82C221.922,47.305,220.477,47.913,219.239,48.761z"/><path style="font-size:12;fill:url(#XMLID_7_)" id="path575" d="M84.485,146.561c-1.425,0.977-3.344,0.803-4.567-0.416c0,0-44.921-44.724-45.833-45.632 c-0.091,0.252-0.154,0.533-0.154,0.838c0,0.328,0.06,0.662,0.192,0.955c0,0,46.096,101.347,46.241,101.664 c0.877-0.93,141.232-149.292,141.232-149.292c0.232-0.243,0.381-0.741,0.381-1.266c0-0.322-0.074-0.645-0.2-0.935 C220.751,53.177,84.485,146.561,84.485,146.561z"/><path style="font-size:12;fill:url(#XMLID_8_)" id="path582" d="M86.517,149.525c-0.001,0-0.001,0.004-0.001,0.004 c-2.848,1.947-6.69,1.596-9.133-0.838c0,0-20.052-19.966-33.287-33.141c10.589,23.282,30.678,67.45,37.327,82.069 c6.078-6.424,93.826-99.178,119.981-126.826C170.026,92.297,86.517,149.525,86.517,149.525z"/></svg>