<svg xmlns="http://www.w3.org/2000/svg" xmlns:pdf="http://ns.adobe.com/pdf/1.3/" xmlns:svg="http://www.w3.org/2000/svg" xmlns:x="adobe:ns:meta/" xmlns:xap="http://ns.adobe.com/xap/1.0/" xmlns:xapGImg="http://ns.adobe.com/xap/1.0/g/img/" xmlns:xapMM="http://ns.adobe.com/xap/1.0/mm/" xmlns:xlink="http://www.w3.org/1999/xlink" id="svg710" width="64" height="64" enable-background="new 0 0 256 256" overflow="visible" version="1.1" viewBox="0 0 256 256" xml:space="preserve"><defs id="defs796"><linearGradient id="XMLID_9_" x1="129" x2="129" y1="11" y2="245" gradientUnits="userSpaceOnUse"><stop id="stop717" offset="0" style="stop-color:#494949"/><stop id="stop718" offset="1" style="stop-color:#000"/></linearGradient><linearGradient id="XMLID_10_" x1="29.053" x2="226.947" y1="29.053" y2="226.947" gradientUnits="userSpaceOnUse"><stop id="stop725" offset="0" style="stop-color:#fff"/><stop id="stop726" offset="1" style="stop-color:#dadada"/></linearGradient><linearGradient id="XMLID_11_" x1="-481.701" x2="-360.246" y1="-94.419" y2="-164.221" gradientTransform="matrix(0.1991,0.98,-0.98,0.1991,91.6944,573.5653)" gradientUnits="userSpaceOnUse"><stop id="stop736" offset="0" style="stop-color:#900"/><stop id="stop737" offset="1" style="stop-color:#7c0000"/></linearGradient><linearGradient id="XMLID_12_" x1="-1375.984" x2="-1355.045" y1="685.381" y2="706.322" gradientTransform="matrix(-0.999,0.0435,0.0435,0.999,-1277.0056,-496.5172)" gradientUnits="userSpaceOnUse"><stop id="stop743" offset="0" style="stop-color:#f8f1dc"/><stop id="stop744" offset="1" style="stop-color:#d6a84a"/></linearGradient><linearGradient id="XMLID_13_" x1="65.095" x2="137.602" y1="-.795" y2="160.182" gradientUnits="userSpaceOnUse"><stop id="stop750" offset="0" style="stop-color:#ffa700"/><stop id="stop751" offset=".775" style="stop-color:gold"/><stop id="stop752" offset="1" style="stop-color:#ff794b"/></linearGradient><linearGradient id="XMLID_14_" x1="-1336.45" x2="-1325.322" y1="635.795" y2="622.533" gradientTransform="matrix(-0.999,0.0435,0.0435,0.999,-1277.0056,-496.5172)" gradientUnits="userSpaceOnUse"><stop id="stop763" offset="0" style="stop-color:#ffc957"/><stop id="stop764" offset="1" style="stop-color:#ff6d00"/></linearGradient><linearGradient id="XMLID_15_" x1="-1401.459" x2="-1354.685" y1="595.631" y2="699.476" gradientTransform="matrix(-0.999,0.0435,0.0435,0.999,-1277.0056,-496.5172)" gradientUnits="userSpaceOnUse"><stop id="stop770" offset="0" style="stop-color:#ffa700"/><stop id="stop771" offset=".775" style="stop-color:gold"/><stop id="stop772" offset="1" style="stop-color:#ff9200"/></linearGradient><linearGradient id="XMLID_16_" x1="67.845" x2="144.59" y1="115.536" y2="115.536" gradientUnits="userSpaceOnUse"><stop id="stop780" offset="0" style="stop-color:#7d7d99"/><stop id="stop781" offset=".18" style="stop-color:#b1b1c5"/><stop id="stop782" offset=".373" style="stop-color:#bcbcc8"/><stop id="stop783" offset=".682" style="stop-color:#c8c8cb"/><stop id="stop784" offset="1" style="stop-color:#ccc"/></linearGradient><linearGradient id="linearGradient80060" x1="67.845" x2="144.59" y1="115.536" y2="115.536" gradientTransform="translate(0,-25.600002)" gradientUnits="userSpaceOnUse" xlink:href="#XMLID_16_"/><linearGradient id="linearGradient80063" x1="-1401.459" x2="-1354.685" y1="595.631" y2="699.476" gradientTransform="matrix(-0.999,0.0435,0.0435,0.999,-1277.0056,-522.11722)" gradientUnits="userSpaceOnUse" xlink:href="#XMLID_15_"/><linearGradient id="linearGradient80066" x1="-1336.45" x2="-1325.322" y1="635.795" y2="622.533" gradientTransform="matrix(-0.999,0.0435,0.0435,0.999,-1277.0056,-522.11722)" gradientUnits="userSpaceOnUse" xlink:href="#XMLID_14_"/><linearGradient id="linearGradient80072" x1="65.095" x2="137.602" y1="-.795" y2="160.182" gradientTransform="translate(0,-25.600002)" gradientUnits="userSpaceOnUse" xlink:href="#XMLID_13_"/><linearGradient id="linearGradient80075" x1="-1375.984" x2="-1355.045" y1="685.381" y2="706.322" gradientTransform="matrix(-0.999,0.0435,0.0435,0.999,-1277.0056,-522.11722)" gradientUnits="userSpaceOnUse" xlink:href="#XMLID_12_"/><linearGradient id="linearGradient80078" x1="-481.701" x2="-360.246" y1="-94.419" y2="-164.221" gradientTransform="matrix(0.1991,0.98,-0.98,0.1991,91.6944,547.96528)" gradientUnits="userSpaceOnUse" xlink:href="#XMLID_11_"/><linearGradient id="linearGradient80085" x1="29.053" x2="226.947" y1="29.053" y2="226.947" gradientUnits="userSpaceOnUse" xlink:href="#XMLID_10_"/><linearGradient id="linearGradient80089" x1="129" x2="129" y1="11" y2="245" gradientUnits="userSpaceOnUse" xlink:href="#XMLID_9_"/></defs><metadata id="metadata711"><xpacket id="xpacket79197">begin=&apos; &apos; id=&apos;W5M0MpCehiHzreSzNTczkc9d&apos;</xpacket><x:xmpmeta x:xmptk="XMP toolkit 3.0-29, framework 1.6"><metadata id="metadata79254"/></x:xmpmeta><xpacket id="xpacket79199">end=&apos;w&apos;</xpacket></metadata><path style="opacity:.2" id="path713" d="m 44,15.5 c -9.374,0 -17,7.626 -17,17 v 200 c 0,9.374 7.626,17 17,17 h 176 c 9.375,0 17,-7.626 17,-17 v -200 c 0,-9.374 -7.625,-17 -17,-17 H 44 z"/><path style="opacity:.2" id="path714" d="m 42,13.5 c -9.374,0 -17,7.626 -17,17 v 200 c 0,9.374 7.626,17 17,17 h 176 c 9.375,0 17,-7.626 17,-17 v -200 c 0,-9.374 -7.625,-17 -17,-17 H 42 z"/><path style="opacity:.2" id="path715" d="m 40,12.5 c -9.374,0 -17,7.626 -17,17 v 200 c 0,9.374 7.626,17 17,17 h 176 c 9.375,0 17,-7.626 17,-17 v -200 c 0,-9.374 -7.625,-17 -17,-17 H 40 z"/><path style="fill:url(#linearGradient80089)" id="path722" d="m 41,11 c -9.374,0 -17,7.626 -17,17 v 200 c 0,9.374 7.626,17 17,17 h 176 c 9.375,0 17,-7.626 17,-17 V 28 c 0,-9.374 -7.625,-17 -17,-17 H 41 z"/><path style="fill:#fff" id="path723" d="m 28,228 c 0,6.627 5.373,12 12,12 h 176 c 6.627,0 12,-5.373 12,-12 V 28 c 0,-6.627 -5.373,-12 -12,-12 H 40 c -6.627,0 -12,5.373 -12,12 v 200 z"/><path style="fill:url(#linearGradient80085)" id="path730" d="m 40,21 c -3.86,0 -7,3.14 -7,7 v 200 c 0,3.859 3.14,7 7,7 h 176 c 3.859,0 7,-3.141 7,-7 V 28 c 0,-3.86 -3.141,-7 -7,-7 H 40 z"/><path style="opacity:.2" id="path731" d="m 191.924,170.38398 c -11.613,-36.12699 -13.717,-42.66999 -14.859,-44.06399 0.119,0.076 0.289,0.178 0.289,0.178 L 98.804,39.042999 c -4.195,-4.65 -14.005,0.356 -21.355,6.976 -7.283,6.542 -13.32,15.772999 -9.37,20.563999 l 78.944,87.542982 0.533,0.094 37.768,17.602 7.688,2.365 -1.088,-3.803 z"/><path style="opacity:.2" id="path732" d="m 193.557,167.91598 c -11.611,-36.12499 -13.713,-42.66999 -14.855,-44.06399 0.117,0.072 0.287,0.178 0.287,0.178 L 100.444,36.574999 c -4.199,-4.651 -14.015,0.355 -21.361,6.975 -7.281,6.545 -13.32,15.772999 -9.368,20.565999 l 78.945,87.538982 0.533,0.1 37.77,17.598 7.682,2.367 -1.088,-3.804 z"/><path style="opacity:.2" id="path733" d="M 186.773,165.44898 C 175.16,129.32199 173.06,122.77699 171.91,121.38099 c 0.121,0.074 0.295,0.18 0.295,0.18 L 93.653,34.103999 c -4.192,-4.65 -14.009,0.359 -21.354,6.978 -7.283,6.542 -13.321,15.770999 -9.369,20.564999 l 78.942,87.540982 0.535,0.096 37.768,17.598 7.686,2.367 -1.088,-3.8 z"/><path style="fill:#fff" id="path734" d="m 186.43,163.75498 c -11.613,-36.12499 -13.713,-42.66599 -14.863,-44.06099 0.123,0.072 0.293,0.18 0.293,0.18 L 93.314,32.415999 c -4.199,-4.651 -14.015,0.357 -21.359,6.977 -7.283,6.543 -13.322,15.773999 -9.37,20.565999 l 78.941,87.540982 0.535,0.098 37.771,17.598 7.686,2.363 -1.088,-3.804 z"/><path style="fill:url(#linearGradient80078)" id="path741" d="m 186.43,163.75498 c -11.613,-36.12499 -13.713,-42.66599 -14.863,-44.06099 0.123,0.072 0.293,0.18 0.293,0.18 L 93.314,32.415999 c -4.199,-4.651 -14.015,0.357 -21.359,6.977 -7.283,6.543 -13.322,15.773999 -9.37,20.565999 l 78.941,87.540982 0.535,0.098 37.771,17.598 7.686,2.363 -1.088,-3.804 z"/><path style="fill:url(#linearGradient80075)" id="path748" d="m 166.969,122.16199 13.723,38.12899 -36.371,-17.90199 0.168,-0.152 c -0.25,-0.08 -0.496,-0.178 -0.701,-0.316 l -0.125,0.121 -75.303,-83.569992 0.123,-0.104 c -2.246,-2.49 1.032,-9.093999 7.308,-14.751999 6.28,-5.652 13.18,-8.219 15.425,-5.733 l 75.292,83.564991 0.461,0.714 z"/><path style="fill:url(#linearGradient80072)" id="path758" d="m 148.652,144.52098 c 2.076,-0.369 4.635,-1.479 7.252,-3.13899 1.617,-1.018 3.279,-2.283 4.898,-3.744 1.455,-1.303 2.736,-2.666 3.84,-4.01 2.076,-2.531 3.322,-5.213 3.781,-7.424 l -1.455,-4.043 -0.463,-0.715 -74.798,-83.017991 c 0.608,2.24 -0.962,5.938 -4.063,9.74 -1.134,1.389 -2.441,2.789 -3.945,4.141 -1.574,1.418999 -3.195,2.651999 -4.767,3.653999 -4.493,2.871 -8.628,3.928 -10.548,2.486 l -0.025,0.021 75.303,83.569992 0.125,-0.121 c 0.205,0.139 0.451,0.236 0.701,0.316 l -0.168,0.152 4.332,2.13399 z"/><path style="fill:#fff" id="path759" d="m 68.083,57.809998 c 1.732,1.772 5.994,0.776 10.643,-2.194 1.541,-0.982 3.132,-2.193 4.677,-3.585999 1.476,-1.325 2.759,-2.701 3.872,-4.063 3.578,-4.388 5.091,-8.642 3.477,-10.584 l 0.023,-0.024 75.817,84.118991 c 0.635,2.262 -0.588,6.498 -3.754,10.357 -1.082,1.318 -2.34,2.656 -3.77,3.934 -1.588,1.434 -3.219,2.676 -4.807,3.676 -4.74,3.006 -9.303,4.19899 -11.016,2.301 -0.393,-0.439 -2.098,-2.336 -2.145,-2.406 l -73.255,-81.313992 0.238,-0.216 z"/><path style="fill:#fff" id="path760" d="m 75.79,43.614999 c 6.28,-5.652 13.18,-8.219 15.425,-5.733 l 16.961,18.827999 1.152,26.49 -17.973,0.784 -22.996,-25.513 0.123,-0.104 c -2.246,-2.49 1.032,-9.092999 7.308,-14.751999 z"/><path style="fill:#fff" id="path761" d="m 68.083,57.809998 c 1.732,1.772 5.994,0.776 10.643,-2.194 1.541,-0.982 3.132,-2.193 4.677,-3.585999 1.476,-1.325 2.759,-2.701 3.872,-4.063 3.578,-4.388 5.091,-8.642 3.477,-10.584 l 0.023,-0.024 75.817,84.118991 c 0.635,2.262 -0.588,6.498 -3.754,10.357 -1.082,1.318 -2.34,2.656 -3.77,3.934 -1.588,1.434 -3.219,2.676 -4.807,3.676 -4.74,3.006 -9.303,4.19899 -11.016,2.301 -0.393,-0.439 -2.098,-2.336 -2.145,-2.406 l -73.255,-81.313992 0.238,-0.216 z"/><path style="fill:url(#linearGradient80066)" id="path768" d="m 75.79,43.614999 c 6.28,-5.652 13.18,-8.219 15.425,-5.733 l 16.961,18.827999 1.152,26.49 -17.973,0.784 -22.996,-25.513 0.123,-0.104 c -2.246,-2.49 1.032,-9.092999 7.308,-14.751999 z"/><path style="fill:url(#linearGradient80063)" id="path778" d="m 68.083,57.809998 c 1.732,1.772 5.994,0.776 10.643,-2.194 1.541,-0.982 3.132,-2.193 4.677,-3.585999 1.476,-1.325 2.759,-2.701 3.872,-4.063 3.578,-4.388 5.091,-8.642 3.477,-10.584 l 0.023,-0.024 75.817,84.118991 c 0.635,2.262 -0.588,6.498 -3.754,10.357 -1.082,1.318 -2.34,2.656 -3.77,3.934 -1.588,1.434 -3.219,2.676 -4.807,3.676 -4.74,3.006 -9.303,4.19899 -11.016,2.301 -0.393,-0.439 -2.098,-2.336 -2.145,-2.406 l -73.255,-81.313992 0.238,-0.216 z"/><path style="fill:url(#linearGradient80060)" id="path790" d="m 74.357,65.112998 c 0,0 6.036,-0.212 10.685,-3.182 1.542,-0.983 3.132,-2.193 4.677,-3.586 1.477,-1.326 2.76,-2.701 3.873,-4.064 2.928,-3.588999 4.469,-7.087999 4.049,-9.306999 l -6.865,-7.617 -0.023,0.024 c 1.614,1.942 0.102,6.196 -3.477,10.584 -1.113,1.362 -2.396,2.738 -3.872,4.063 -1.545,1.392999 -3.136,2.603999 -4.677,3.585999 -4.648,2.971 -8.91,3.967 -10.643,2.194 l -0.238,0.217 73.256,81.310992 c 0.047,0.07 1.752,1.967 2.145,2.406 0.342,0.377 0.799,0.627 1.344,0.771 L 74.357,65.112998 z"/><path style="fill:#033" id="path791" d="m 172.035,149.75398 c -1.635,1.477 -3.307,2.764 -4.949,3.84 l 13.605,6.697 -5.096,-14.156 c -1.058,1.218 -2.243,2.441 -3.56,3.619 z"/><path style="opacity:.5;fill:#fff" id="path792" d="M 163.121,131.45299 86.968,48.329999 c 0.1,-0.12 0.213,-0.242 0.307,-0.364 1.428,-1.752 2.52,-3.49 3.225,-5.058 l 75.768,82.706991 c -0.553,1.824 -1.6,3.867 -3.147,5.838 z"/><path style="opacity:.5;fill:#fff" id="path793" d="m 87.275,47.965999 c 0.634,-0.774 1.189,-1.548 1.694,-2.3 l 76.015,82.973991 c -0.578,1.063 -1.283,2.146 -2.146,3.193 -0.744,0.896 -1.566,1.805 -2.465,2.697 L 84.152,51.331999 c 1.164,-1.108 2.209,-2.24 3.123,-3.366 z"/><rect style="fill:none" id="_x3C_Slice_x3E_" width="256" height="256" x="0" y="0"/><rect style="fill:#fff;fill-opacity:1;stroke:#000;stroke-width:4.26666689;stroke-opacity:1" id="rect79256" width="150.78" height="48.814" x="9.313" y="170.863" ry="0"/><text style="font-size:42.66666794px;font-style:normal;font-variant:normal;font-weight:400;font-stretch:normal;text-align:justify;line-height:125%;letter-spacing:0;word-spacing:0;writing-mode:lr-tb;text-anchor:start;fill:#000;fill-opacity:1;stroke:none;font-family:Linux Libertine O C;-inkscape-font-specification:Linux Libertine O C" id="text80094" x="24.555" y="207.102" xml:space="preserve"><tspan id="tspan80096" x="24.555" y="207.102" style="font-style:italic;font-weight:700;-inkscape-font-specification:Linux Libertine O C Bold Italic">Labels</tspan></text></svg>