<svg xmlns="http://www.w3.org/2000/svg" xmlns:cc="http://web.resource.org/cc/" xmlns:svg="http://www.w3.org/2000/svg" xmlns:xlink="http://www.w3.org/1999/xlink" id="svg2" width="64" height="64" version="1.0" viewBox="0 0 256 256" xml:space="preserve"><metadata id="metadata85"/><g id="switch6"><g id="g10"><g id="Layer_1"><rect style="fill:none" id="rect13" width="256" height="256" x="0" y="0"/></g><g id="Layer_2"><linearGradient id="XMLID_14_" x1="98.552" x2="98.552" y1="41.259" y2="214.725" gradientUnits="userSpaceOnUse"><stop style="stop-color:#c9e6ff;stop-opacity:1" id="stop17" offset="0"/><stop style="stop-color:#006dff;stop-opacity:1" id="stop19" offset=".556"/><stop style="stop-color:#0035ed;stop-opacity:1" id="stop21" offset="1"/></linearGradient><path style="fill:url(#XMLID_14_)" id="path23" d="M 17.219,51.266 C 16.115,51.266 15.219,52.163 15.219,53.266 L 15.219,202.735 C 15.219,203.838 16.115,204.735 17.219,204.735 L 179.885,204.735 C 180.989,204.735 181.885,203.838 181.885,202.735 L 181.885,75.933 C 181.885,74.83 180.989,73.933 179.885,73.933 L 100.552,73.933 L 100.552,53.266 C 100.552,52.163 99.656,51.266 98.552,51.266 L 17.219,51.266 z"/><linearGradient id="XMLID_15_" x1="98.552" x2="98.552" y1="41.259" y2="214.727" gradientUnits="userSpaceOnUse"><stop style="stop-color:#dcf0ff;stop-opacity:1" id="stop26" offset="0"/><stop style="stop-color:#428aff;stop-opacity:1" id="stop28" offset=".59"/><stop style="stop-color:#006dff;stop-opacity:1" id="stop30" offset=".859"/><stop style="stop-color:#0035ed;stop-opacity:1" id="stop32" offset="1"/></linearGradient><path style="fill:url(#XMLID_15_)" id="path34" d="M 20.219,56.266 C 20.219,61.91 20.219,194.091 20.219,199.735 C 25.891,199.735 171.213,199.735 176.885,199.735 C 176.885,194.154 176.885,84.514 176.885,78.933 C 171.33,78.933 95.552,78.933 95.552,78.933 C 95.552,78.933 95.552,60.651 95.552,56.266 C 90.2,56.266 25.572,56.266 20.219,56.266 z"/><linearGradient id="XMLID_16_" x1="98.552" x2="98.552" y1="41.259" y2="214.725" gradientUnits="userSpaceOnUse"><stop style="stop-color:#fff;stop-opacity:1" id="stop37" offset="0"/><stop style="stop-color:#e9f2ff;stop-opacity:1" id="stop39" offset=".115"/><stop style="stop-color:#b0d2ff;stop-opacity:1" id="stop41" offset=".354"/><stop style="stop-color:#579fff;stop-opacity:1" id="stop43" offset=".694"/><stop style="stop-color:#006dff;stop-opacity:1" id="stop45" offset="1"/></linearGradient><path style="fill:url(#XMLID_16_)" id="path47" d="M 179.885,73.933 L 100.552,73.933 L 100.552,53.266 C 100.552,52.163 99.656,51.266 98.552,51.266 L 17.219,51.266 C 16.115,51.266 15.219,52.163 15.219,53.266 L 15.219,57.266 L 91.552,57.266 C 92.656,57.266 93.552,58.163 93.552,59.266 L 93.552,79.933 L 172.885,79.933 C 173.989,79.933 174.885,80.83 174.885,81.933 L 174.885,204.735 L 179.885,204.735 C 180.989,204.735 181.885,203.838 181.885,202.735 L 181.885,75.933 C 181.885,74.83 180.988,73.933 179.885,73.933 z"/><linearGradient id="XMLID_17_" x1="106.984" x2="106.984" y1="98.599" y2="206.735" gradientUnits="userSpaceOnUse"><stop style="stop-color:#09f;stop-opacity:1" id="stop50" offset="0"/><stop style="stop-color:#0089e5;stop-opacity:1" id="stop52" offset=".094"/><stop style="stop-color:#00406b;stop-opacity:1" id="stop54" offset=".547"/><stop style="stop-color:#00121e;stop-opacity:1" id="stop56" offset=".858"/><stop style="stop-color:#000;stop-opacity:1" id="stop58" offset="1"/></linearGradient><path style="opacity:.3;fill:url(#XMLID_17_)" id="path60" d="M 32.083,106.599 L 32.083,206.734 L 42.083,206.734 C 42.083,180.445 42.083,111.718 42.083,108.599 C 45.222,108.599 143.57,108.599 181.884,108.599 L 181.884,98.599 L 40.083,98.599 C 35.665,98.599 32.083,102.181 32.083,106.599 z"/><linearGradient id="XMLID_18_" x1="6.367" x2="179.405" y1="47.148" y2="220.186" gradientUnits="userSpaceOnUse"><stop style="stop-color:#0053bd;stop-opacity:1" id="stop63" offset="0"/><stop style="stop-color:#00008d;stop-opacity:1" id="stop65" offset="1"/></linearGradient><path style="fill:url(#XMLID_18_)" id="path67" d="M 179.885,63.933 L 110.552,63.933 L 110.552,53.266 C 110.552,46.639 105.18,41.266 98.552,41.266 L 17.219,41.266 C 10.591,41.266 5.219,46.639 5.219,53.266 L 5.219,75.933 L 5.219,202.735 C 5.219,209.362 10.591,214.735 17.219,214.735 L 98.552,214.735 L 179.885,214.735 C 186.512,214.735 191.885,209.362 191.885,202.735 L 191.885,75.933 C 191.885,69.305 186.512,63.933 179.885,63.933 z M 181.885,202.734 C 181.885,203.837 180.989,204.734 179.885,204.734 L 17.219,204.734 C 16.115,204.734 15.219,203.837 15.219,202.734 L 15.219,53.266 C 15.219,52.163 16.115,51.266 17.219,51.266 L 98.552,51.266 C 99.656,51.266 100.552,52.163 100.552,53.266 L 100.552,73.933 L 179.885,73.933 C 180.989,73.933 181.885,74.83 181.885,75.933 L 181.885,202.734 z"/><linearGradient id="XMLID_19_" x1="128.484" x2="128.484" y1="86.067" y2="228.071" gradientUnits="userSpaceOnUse"><stop style="stop-color:#c9e6ff;stop-opacity:1" id="stop70" offset="0"/><stop style="stop-color:#006dff;stop-opacity:1" id="stop72" offset=".556"/><stop style="stop-color:#0035ed;stop-opacity:1" id="stop74" offset="1"/></linearGradient><path style="fill:url(#XMLID_19_)" id="path76" d="M 51.083,96.599 C 51.083,100.388 51.083,200.946 51.083,204.734 C 54.933,204.734 202.035,204.734 205.884,204.734 C 205.884,200.946 205.884,100.387 205.884,96.599 C 202.035,96.599 54.933,96.599 51.083,96.599 z"/><linearGradient id="XMLID_20_" x1="128.484" x2="128.484" y1="86.064" y2="228.067" gradientUnits="userSpaceOnUse"><stop style="stop-color:#dcf0ff;stop-opacity:1" id="stop79" offset="0"/><stop style="stop-color:#428aff;stop-opacity:1" id="stop81" offset=".674"/><stop style="stop-color:#006dff;stop-opacity:1" id="stop83" offset="1"/></linearGradient><path style="fill:url(#XMLID_20_)" id="path85" d="M 56.083,101.599 C 56.083,110.255 56.083,191.079 56.083,199.734 C 65.135,199.734 191.833,199.734 200.884,199.734 C 200.884,191.079 200.884,110.255 200.884,101.599 C 191.834,101.599 65.135,101.599 56.083,101.599 z"/><linearGradient id="XMLID_21_" x1="54.491" x2="217.155" y1="76.674" y2="239.338" gradientUnits="userSpaceOnUse"><stop style="stop-color:#0053bd;stop-opacity:1" id="stop88" offset="0"/><stop style="stop-color:#00008d;stop-opacity:1" id="stop90" offset="1"/></linearGradient><path style="fill:url(#XMLID_21_)" id="path92" d="M 207.885,86.599 L 49.083,86.599 C 44.664,86.599 41.083,90.181 41.083,94.599 L 41.083,206.734 C 41.083,211.152 44.664,214.734 49.083,214.734 L 207.884,214.734 C 212.302,214.734 215.884,211.152 215.884,206.734 L 215.884,94.599 C 215.885,90.181 212.303,86.599 207.885,86.599 z M 205.885,204.734 C 202.035,204.734 54.933,204.734 51.084,204.734 C 51.084,200.946 51.084,100.387 51.084,96.599 C 54.934,96.599 202.036,96.599 205.885,96.599 C 205.885,100.388 205.885,200.946 205.885,204.734 z"/><linearGradient id="XMLID_22_" x1="128.484" x2="128.484" y1="86.067" y2="228.071" gradientUnits="userSpaceOnUse"><stop style="stop-color:#fff;stop-opacity:1" id="stop95" offset="0"/><stop style="stop-color:#f7fbff;stop-opacity:1" id="stop97" offset=".086"/><stop style="stop-color:#e2eeff;stop-opacity:1" id="stop99" offset=".218"/><stop style="stop-color:#c0dbff;stop-opacity:1" id="stop101" offset=".378"/><stop style="stop-color:#8fbfff;stop-opacity:1" id="stop103" offset=".561"/><stop style="stop-color:#529cff;stop-opacity:1" id="stop105" offset=".763"/><stop style="stop-color:#0871ff;stop-opacity:1" id="stop107" offset=".978"/><stop style="stop-color:#006dff;stop-opacity:1" id="stop109" offset="1"/></linearGradient><path style="fill:url(#XMLID_22_)" id="path111" d="M 51.083,96.599 C 51.083,97.141 51.083,99.667 51.083,103.599 C 82.419,103.599 194.529,103.599 197.884,103.599 C 197.884,106.846 197.884,181.163 197.884,204.734 C 202.511,204.734 205.39,204.734 205.884,204.734 C 205.884,200.946 205.884,100.387 205.884,96.599 C 202.035,96.599 54.933,96.599 51.083,96.599 z"/><path style="fill:#036" id="path113" d="M 132.455,30.044 C 126.885,30.044 122.355,34.574 122.355,40.143 L 122.355,158.953 C 122.355,164.521 126.885,169.053 132.455,169.053 L 237.008,169.053 C 242.576,169.053 247.108,164.522 247.108,158.953 L 247.108,40.143 C 247.108,34.574 242.577,30.044 237.008,30.044 L 132.455,30.044 z"/><linearGradient id="XMLID_23_" x1="158.892" x2="299.682" y1="73.709" y2="214.499" gradientUnits="userSpaceOnUse"><stop style="stop-color:#fff;stop-opacity:1" id="stop116" offset="0"/><stop style="stop-color:#9cf;stop-opacity:1" id="stop118" offset="1"/></linearGradient><path style="fill:url(#XMLID_23_)" id="path120" d="M 132.455,35.984 C 130.162,35.984 128.295,37.85 128.295,40.143 L 128.295,158.953 C 128.295,161.246 130.162,163.111 132.455,163.111 L 237.008,163.111 C 239.301,163.111 241.166,161.246 241.166,158.953 L 241.166,40.143 C 241.166,37.85 239.301,35.984 237.008,35.984 L 132.455,35.984 z"/><path style="opacity:.4;fill:#fff" id="path122" d="M 205.523,86.479 C 216.566,76.124 229.841,71.031 244.136,68.5 L 244.136,40.143 C 244.136,36.206 240.943,33.014 237.007,33.014 L 132.455,33.014 C 128.517,33.014 125.326,36.206 125.326,40.143 L 125.326,125.251 C 154.779,127.473 182.639,106.979 205.523,86.479 z"/><linearGradient id="XMLID_24_" x1="141.706" x2="239.219" y1="66.528" y2="164.041" gradientUnits="userSpaceOnUse"><stop style="stop-color:#0053bd;stop-opacity:1" id="stop125" offset="0"/><stop style="stop-color:#00008d;stop-opacity:1" id="stop127" offset="1"/></linearGradient><path style="opacity:.2;fill:url(#XMLID_24_)" id="path129" d="M 207.885,86.599 L 122.355,86.599 L 122.355,96.599 C 162.027,96.599 203.855,96.599 205.885,96.599 C 205.885,98.946 205.885,138.441 205.885,169.053 L 215.885,169.053 L 215.885,94.599 C 215.885,90.181 212.303,86.599 207.885,86.599 z"/><linearGradient id="XMLID_25_" x1="164.12" x2="164.12" y1="89.542" y2="184.689" gradientUnits="userSpaceOnUse"><stop style="stop-color:#c9e6ff;stop-opacity:1" id="stop132" offset="0"/><stop style="stop-color:#006dff;stop-opacity:1" id="stop134" offset=".556"/><stop style="stop-color:#0035ed;stop-opacity:1" id="stop136" offset="1"/></linearGradient><path style="opacity:.2;fill:url(#XMLID_25_)" id="path138" d="M 122.355,158.953 C 122.355,164.521 126.885,169.053 132.455,169.053 L 205.885,169.053 C 205.885,138.442 205.885,98.947 205.885,96.599 C 203.856,96.599 162.028,96.599 122.355,96.599 L 122.355,158.953 L 122.355,158.953 z"/><linearGradient id="XMLID_26_" x1="185.885" x2="185.885" y1="86.067" y2="228.071" gradientUnits="userSpaceOnUse"><stop style="stop-color:#0053bd;stop-opacity:1" id="stop141" offset="0"/><stop style="stop-color:#00008d;stop-opacity:1" id="stop143" offset="1"/></linearGradient><path style="opacity:.3;fill:url(#XMLID_26_)" id="path145" d="M 181.885,96.599 L 181.885,202.734 C 181.885,203.837 180.989,204.734 179.885,204.734 C 184.268,204.734 188.244,204.734 191.705,204.734 C 191.814,204.083 191.885,203.417 191.885,202.734 L 191.885,96.599 C 188.916,96.599 185.557,96.599 181.885,96.599 z"/><path style="opacity:.2;fill:#fff" id="path147" d="M 122.355,96.599 L 122.355,103.599 C 159.458,103.599 195.991,103.599 197.885,103.599 C 197.885,105.771 197.885,139.741 197.885,169.053 L 205.885,169.053 C 205.885,138.442 205.885,98.947 205.885,96.599 C 203.855,96.599 162.027,96.599 122.355,96.599 z"/><rect style="fill:none" id="_x3C_Slice_x3E_" width="256" height="256" x="0" y="0"/></g></g></g></svg>