<svg xmlns="http://www.w3.org/2000/svg" xmlns:pdf="http://ns.adobe.com/pdf/1.3/" xmlns:x="adobe:ns:meta/" xmlns:xap="http://ns.adobe.com/xap/1.0/" xmlns:xapGImg="http://ns.adobe.com/xap/1.0/g/img/" xmlns:xapMM="http://ns.adobe.com/xap/1.0/mm/" xmlns:xlink="http://www.w3.org/1999/xlink" xmlns:xml="http://www.w3.org/XML/1998/namespace" id="svg589" width="64" height="64" viewBox="0 0 48 48" xml:space="preserve" style="overflow:visible;enable-background:new 0 0 48 48"><defs id="defs677"><metadata id="metadata711"><sfw><slices><slice width="256" height="256" x="0" y="0" sliceID="124333141"/></slices><sliceSourceBounds width="256" height="256" x="0" y="0" bottomLeftOrigin="true"/><optimizationSettings><targetSettings fileFormat="PNG24Format" targetSettingsID="0"><PNG24Format filtered="false" includeCaption="false" interlaced="false" matteColor="#FFFFFF" noMatteColor="false" transparency="true"/></targetSettings></optimizationSettings></sfw><xpacket>begin=&apos; &apos; id=&apos;W5M0MpCehiHzreSzNTczkc9d&apos;</xpacket><x:xmpmeta x:xmptk="XMP toolkit 3.0-29, framework 1.6"/><xpacket>end=&apos;w&apos;</xpacket></metadata><linearGradient id="XMLID_9_" x1="129" x2="129" y1="11" y2="245" gradientUnits="userSpaceOnUse"><stop style="stop-color:#494949" id="stop717" offset="0"/><stop style="stop-color:#000" id="stop718" offset="1"/></linearGradient><linearGradient id="XMLID_10_" x1="29.053" x2="226.947" y1="29.053" y2="226.947" gradientUnits="userSpaceOnUse"><stop style="stop-color:#fff" id="stop725" offset="0"/><stop style="stop-color:#dadada" id="stop726" offset="1"/></linearGradient><linearGradient id="XMLID_11_" x1="-481.701" x2="-360.246" y1="-94.419" y2="-164.221" gradientTransform="matrix(0.1991 0.98 -0.98 0.1991 91.6944 573.5653)" gradientUnits="userSpaceOnUse"><stop style="stop-color:#900" id="stop736" offset="0"/><stop style="stop-color:#7c0000" id="stop737" offset="1"/></linearGradient><linearGradient id="XMLID_12_" x1="-1375.984" x2="-1355.045" y1="685.381" y2="706.322" gradientTransform="matrix(-0.999 0.0435 0.0435 0.999 -1277.0056 -496.5172)" gradientUnits="userSpaceOnUse"><stop style="stop-color:#f8f1dc" id="stop743" offset="0"/><stop style="stop-color:#d6a84a" id="stop744" offset="1"/></linearGradient><linearGradient id="XMLID_13_" x1="65.095" x2="137.602" y1="-.795" y2="160.182" gradientUnits="userSpaceOnUse"><stop style="stop-color:#ffa700" id="stop750" offset="0"/><stop style="stop-color:gold" id="stop751" offset=".775"/><stop style="stop-color:#ff794b" id="stop752" offset="1"/></linearGradient><linearGradient id="XMLID_14_" x1="-1336.45" x2="-1325.322" y1="635.795" y2="622.533" gradientTransform="matrix(-0.999 0.0435 0.0435 0.999 -1277.0056 -496.5172)" gradientUnits="userSpaceOnUse"><stop style="stop-color:#ffc957" id="stop763" offset="0"/><stop style="stop-color:#ff6d00" id="stop764" offset="1"/></linearGradient><linearGradient id="XMLID_15_" x1="-1401.459" x2="-1354.685" y1="595.631" y2="699.476" gradientTransform="matrix(-0.999 0.0435 0.0435 0.999 -1277.0056 -496.5172)" gradientUnits="userSpaceOnUse"><stop style="stop-color:#ffa700" id="stop770" offset="0"/><stop style="stop-color:gold" id="stop771" offset=".775"/><stop style="stop-color:#ff9200" id="stop772" offset="1"/></linearGradient><linearGradient id="XMLID_16_" x1="67.845" x2="144.59" y1="115.536" y2="115.536" gradientUnits="userSpaceOnUse"><stop style="stop-color:#7d7d99" id="stop780" offset="0"/><stop style="stop-color:#b1b1c5" id="stop781" offset=".18"/><stop style="stop-color:#bcbcc8" id="stop782" offset=".373"/><stop style="stop-color:#c8c8cb" id="stop783" offset=".682"/><stop style="stop-color:#ccc" id="stop784" offset="1"/></linearGradient></defs><metadata id="metadata590"><xpacket>begin=&apos; &apos; id=&apos;W5M0MpCehiHzreSzNTczkc9d&apos;</xpacket><x:xmpmeta x:xmptk="XMP toolkit 3.0-29, framework 1.6"/><xpacket>end=&apos;w&apos;</xpacket></metadata><g id="Layer_1"><path style="opacity:.2" id="path592" d="M9.416,5.208c-2.047,0-3.712,1.693-3.712,3.775V39.15c0,2.082,1.666,3.775,3.712,3.775h29.401 c2.047,0,3.712-1.693,3.712-3.775V8.983c0-2.082-1.665-3.775-3.712-3.775H9.416z"/><path style="opacity:.2" id="path593" d="M9.041,4.833c-2.047,0-3.712,1.693-3.712,3.775v30.167c0,2.082,1.666,3.775,3.712,3.775h29.401 c2.047,0,3.712-1.693,3.712-3.775V8.608c0-2.082-1.665-3.775-3.712-3.775H9.041z"/><path style="fill:#00008d" id="path594" d="M8.854,4.646c-2.047,0-3.712,1.693-3.712,3.775v30.167c0,2.082,1.666,3.775,3.712,3.775h29.401 c2.047,0,3.712-1.693,3.712-3.775V8.42c0-2.082-1.665-3.775-3.712-3.775H8.854z"/><path style="fill:#00008d" id="path595" d="M8.854,5.021c-1.84,0-3.337,1.525-3.337,3.4v30.167c0,1.875,1.497,3.4,3.337,3.4h29.401 c1.84,0,3.337-1.525,3.337-3.4V8.42c0-1.875-1.497-3.4-3.337-3.4H8.854z"/><path id="path166_1_" d="M40.654,38.588c0,1.36-1.074,2.463-2.399,2.463H8.854c-1.326,0-2.4-1.103-2.4-2.463V8.42 c0-1.36,1.074-2.462,2.4-2.462h29.401c1.325,0,2.399,1.103,2.399,2.462V38.588z" style="fill:#fff"/><linearGradient id="path166_2_" x1="-149.046" x2="-149.046" y1="251.144" y2="436.303" gradientTransform="matrix(0.1875 0 0 -0.1875 51.5 83.75)" gradientUnits="userSpaceOnUse"><stop style="stop-color:#b4e2ff" id="stop598" offset="0"/><stop style="stop-color:#006dff" id="stop599" offset="1"/></linearGradient><path id="path166" d="M40.654,38.588c0,1.36-1.074,2.463-2.399,2.463H8.854c-1.326,0-2.4-1.103-2.4-2.463V8.42 c0-1.36,1.074-2.462,2.4-2.462h29.401c1.325,0,2.399,1.103,2.399,2.462V38.588z" style="fill:url(#path166_2_)"/><path style="fill:#fff" id="path604" d="M8.854,6.521c-1.013,0-1.837,0.852-1.837,1.9v30.167c0,1.048,0.824,1.9,1.837,1.9h29.401 c1.013,0,1.837-0.853,1.837-1.9V8.42c0-1.048-0.824-1.9-1.837-1.9H8.854z"/><linearGradient id="XMLID_1_" x1="7.306" x2="50.773" y1="7.256" y2="50.723" gradientUnits="userSpaceOnUse"><stop style="stop-color:#94caff" id="stop606" offset="0"/><stop style="stop-color:#006dff" id="stop607" offset="1"/></linearGradient><path style="fill:url(#XMLID_1_)" id="path611" d="M8.854,6.521c-1.013,0-1.837,0.852-1.837,1.9v30.167c0,1.048,0.824,1.9,1.837,1.9h29.401 c1.013,0,1.837-0.853,1.837-1.9V8.42c0-1.048-0.824-1.9-1.837-1.9H8.854z"/><linearGradient id="XMLID_2_" x1="23.504" x2="23.504" y1="2.187" y2="34.437" gradientUnits="userSpaceOnUse"><stop style="stop-color:#428aff" id="stop613" offset="0"/><stop style="stop-color:#c9e6ff" id="stop614" offset="1"/></linearGradient><path style="fill:url(#XMLID_2_)" id="path618" d="M36.626,6.861c0,0-26.184,0-26.914,0c0,0.704,0,16.59,0,17.294c0.721,0,26.864,0,27.583,0 c0-0.704,0-16.59,0-17.294C36.988,6.861,36.626,6.861,36.626,6.861z"/><polygon id="path186_1_" points="35.809 6.486 10.221 6.486 10.221 23.405 36.788 23.405 36.788 6.486" style="fill:#fff"/><linearGradient id="path186_2_" x1="-104.593" x2="-206.815" y1="411.67" y2="309.448" gradientTransform="matrix(0.1875 0 0 -0.1875 51.5 83.75)" gradientUnits="userSpaceOnUse"><stop style="stop-color:#ccc" id="stop621" offset="0"/><stop style="stop-color:#f0f0f0" id="stop622" offset="1"/></linearGradient><polygon id="path186" points="35.809 6.486 10.221 6.486 10.221 23.405 36.788 23.405 36.788 6.486" style="fill:url(#path186_2_)"/><path style="fill:#fff;stroke:#fff;stroke-width:.1875" id="path627" d="M11.488,7.019c0,0.698,0,14.542,0,15.239c0.716,0,23.417,0,24.133,0c0-0.698,0-14.541,0-15.239 C34.904,7.019,12.204,7.019,11.488,7.019z"/><linearGradient id="XMLID_3_" x1="34.597" x2="18.409" y1="3.597" y2="19.785" gradientUnits="userSpaceOnUse"><stop style="stop-color:#fff" id="stop629" offset="0"/><stop style="stop-color:#e6edff" id="stop630" offset=".551"/><stop style="stop-color:#fff" id="stop631" offset="1"/></linearGradient><path style="fill:url(#XMLID_3_);stroke:#fff;stroke-width:.1875" id="path637" d="M11.488,7.019c0,0.698,0,14.542,0,15.239c0.716,0,23.417,0,24.133,0c0-0.698,0-14.541,0-15.239 C34.904,7.019,12.204,7.019,11.488,7.019z"/><linearGradient id="path205_1_" x1="-174.441" x2="-108.879" y1="300.091" y2="210.207" gradientTransform="matrix(0.1875 0 0 -0.1875 51.5 83.75)" gradientUnits="userSpaceOnUse"><stop style="stop-color:#039" id="stop639" offset="0"/><stop style="stop-color:#0035ed" id="stop640" offset=".27"/><stop style="stop-color:#57adff" id="stop641" offset="1"/></linearGradient><rect id="path205" width="22.007" height="13.978" x="12.154" y="26.479" style="fill:url(#path205_1_)"/><linearGradient id="XMLID_4_" x1="21.869" x2="21.869" y1="25.188" y2="44.625" gradientUnits="userSpaceOnUse"><stop style="stop-color:#dfdfdf" id="stop649" offset="0"/><stop style="stop-color:#7d7d99" id="stop650" offset="1"/></linearGradient><path style="fill:url(#XMLID_4_)" id="path654" d="M13.244,27.021c-0.311,0-0.563,0.252-0.563,0.563v13.104c0,0.312,0.252,0.563,0.563,0.563h17.249 c0.311,0,0.563-0.251,0.563-0.563V27.583c0-0.311-0.252-0.563-0.563-0.563H13.244z M18.85,30.697c0,0.871,0,5.078,0,5.949 c-0.683,0-2.075,0-2.759,0c0-0.871,0-5.078,0-5.949C16.775,30.697,18.167,30.697,18.85,30.697z"/><linearGradient id="XMLID_5_" x1="-158.034" x2="-158.034" y1="288.068" y2="231.322" gradientTransform="matrix(0.1875 0 0 -0.1875 51.5 83.75)" gradientUnits="userSpaceOnUse"><stop style="stop-color:#f0f0f0" id="stop656" offset="0"/><stop style="stop-color:#cecedb" id="stop657" offset=".635"/><stop style="stop-color:#b1b1c5" id="stop658" offset=".86"/><stop style="stop-color:#fff" id="stop659" offset="1"/></linearGradient><path style="fill:url(#XMLID_5_)" id="path667" d="M13.244,27.583v13.104h17.249V27.583H13.244z M19.413,37.209h-3.884v-7.074h3.884V37.209z"/><linearGradient id="path228_1_" x1="-68.149" x2="-68.149" y1="388.456" y2="404.669" gradientTransform="matrix(0.1875 0 0 -0.1875 51.5 83.75)" gradientUnits="userSpaceOnUse"><stop style="stop-color:#39f" id="stop669" offset="0"/><stop style="stop-color:#000" id="stop670" offset="1"/></linearGradient><rect id="path228" width="1.784" height="1.785" x="37.83" y="9.031" style="fill:url(#path228_1_)"/><polyline id="_x3C_Slice_x3E_" points="0 48 0 0 48 0 48 48" style="fill:none"/></g><rect id="rect810" width="256" height="256" fill="none" transform="matrix(0.125000,0.000000,0.000000,0.125000,-41.51768,12.75884)" style="font-size:12;fill:none"/><g id="g979" transform="matrix(0.207200,1.691268,-1.691268,0.207200,86.28419,53.75496)"><path id="path731" d="M191.924,195.984c-11.613-36.127-13.717-42.67-14.859-44.064c0.119,0.076,0.289,0.178,0.289,0.178 l-78.55-87.455c-4.195-4.65-14.005,0.356-21.355,6.976c-7.283,6.542-13.32,15.773-9.37,20.564l78.944,87.543l0.533,0.094 l37.768,17.602l7.688,2.365L191.924,195.984z" opacity=".2" transform="matrix(0.125000,0.000000,0.000000,0.125000,-41.51768,12.75884)" style="font-size:12;opacity:.2"/><path id="path732" d="M193.557,193.516c-11.611-36.125-13.713-42.67-14.855-44.064c0.117,0.072,0.287,0.178,0.287,0.178 l-78.545-87.455c-4.199-4.651-14.015,0.355-21.361,6.975c-7.281,6.545-13.32,15.773-9.368,20.566l78.945,87.539l0.533,0.1 l37.77,17.598l7.682,2.367L193.557,193.516z" opacity=".2" transform="matrix(0.125000,0.000000,0.000000,0.125000,-41.51768,12.75884)" style="font-size:12;opacity:.2"/><path id="path733" d="M186.773,191.049c-11.613-36.127-13.713-42.672-14.863-44.068c0.121,0.074,0.295,0.18,0.295,0.18 L93.653,59.704c-4.192-4.65-14.009,0.359-21.354,6.978c-7.283,6.542-13.321,15.771-9.369,20.565l78.942,87.541l0.535,0.096 l37.768,17.598l7.686,2.367L186.773,191.049z" opacity=".2" transform="matrix(0.125000,0.000000,0.000000,0.125000,-41.51768,12.75884)" style="font-size:12;opacity:.2"/><path id="path734" fill="#FFF" d="M186.43,189.355c-11.613-36.125-13.713-42.666-14.863-44.061c0.123,0.072,0.293,0.18,0.293,0.18 L93.314,58.016c-4.199-4.651-14.015,0.357-21.359,6.977c-7.283,6.543-13.322,15.774-9.37,20.566l78.941,87.541l0.535,0.098 l37.771,17.598l7.686,2.363L186.43,189.355z" transform="matrix(0.125000,0.000000,0.000000,0.125000,-41.51768,12.75884)" style="font-size:12;fill:#fff"/><path id="path741" fill="url(#XMLID_11_)" d="M186.43,189.355c-11.613-36.125-13.713-42.666-14.863-44.061c0.123,0.072,0.293,0.18,0.293,0.18 L93.314,58.016c-4.199-4.651-14.015,0.357-21.359,6.977c-7.283,6.543-13.322,15.774-9.37,20.566l78.941,87.541l0.535,0.098 l37.771,17.598l7.686,2.363L186.43,189.355z" transform="matrix(0.125000,0.000000,0.000000,0.125000,-41.51768,12.75884)" style="font-size:12;fill:url(#XMLID_11_)"/><path id="path748" fill="url(#XMLID_12_)" d="M166.969,147.762l13.723,38.129l-36.371-17.902l0.168-0.152c-0.25-0.08-0.496-0.178-0.701-0.316 l-0.125,0.121l-75.303-83.57l0.123-0.104c-2.246-2.49,1.032-9.094,7.308-14.752c6.28-5.652,13.18-8.219,15.425-5.733 l75.292,83.565L166.969,147.762z" transform="matrix(0.125000,0.000000,0.000000,0.125000,-41.51768,12.75884)" style="font-size:12;fill:url(#XMLID_12_)"/><path id="path758" fill="url(#XMLID_13_)" d="M148.652,170.121c2.076-0.369,4.635-1.479,7.252-3.139c1.617-1.018,3.279-2.283,4.898-3.744 c1.455-1.303,2.736-2.666,3.84-4.01c2.076-2.531,3.322-5.213,3.781-7.424l-1.455-4.043l-0.463-0.715L91.707,64.028 c0.608,2.24-0.962,5.938-4.063,9.74c-1.134,1.389-2.441,2.789-3.945,4.141c-1.574,1.419-3.195,2.652-4.767,3.654 c-4.493,2.871-8.628,3.928-10.548,2.486l-0.025,0.021l75.303,83.57l0.125-0.121c0.205,0.139,0.451,0.236,0.701,0.316 l-0.168,0.152L148.652,170.121z" transform="matrix(0.125000,0.000000,0.000000,0.125000,-41.51768,12.75884)" style="font-size:12;fill:url(#XMLID_13_)"/><path id="path759" fill="#FFF" d="M68.083,83.41c1.732,1.772,5.994,0.776,10.643-2.194c1.541-0.982,3.132-2.193,4.677-3.586 c1.476-1.325,2.759-2.701,3.872-4.063c3.578-4.388,5.091-8.642,3.477-10.584l0.023-0.024l75.817,84.119 c0.635,2.262-0.588,6.498-3.754,10.357c-1.082,1.318-2.34,2.656-3.77,3.934c-1.588,1.434-3.219,2.676-4.807,3.676 c-4.74,3.006-9.303,4.199-11.016,2.301c-0.393-0.439-2.098-2.336-2.145-2.406L67.845,83.626L68.083,83.41z" transform="matrix(0.125000,0.000000,0.000000,0.125000,-41.51768,12.75884)" style="font-size:12;fill:#fff"/><path id="path760" fill="#FFF" d="M75.79,69.215c6.28-5.652,13.18-8.219,15.425-5.733l16.961,18.828l1.152,26.49l-17.973,0.784 L68.359,84.071l0.123-0.104C66.236,81.477,69.514,74.874,75.79,69.215z" transform="matrix(0.125000,0.000000,0.000000,0.125000,-41.51768,12.75884)" style="font-size:12;fill:#fff"/><path id="path761" fill="#FFF" d="M68.083,83.41c1.732,1.772,5.994,0.776,10.643-2.194c1.541-0.982,3.132-2.193,4.677-3.586 c1.476-1.325,2.759-2.701,3.872-4.063c3.578-4.388,5.091-8.642,3.477-10.584l0.023-0.024l75.817,84.119 c0.635,2.262-0.588,6.498-3.754,10.357c-1.082,1.318-2.34,2.656-3.77,3.934c-1.588,1.434-3.219,2.676-4.807,3.676 c-4.74,3.006-9.303,4.199-11.016,2.301c-0.393-0.439-2.098-2.336-2.145-2.406L67.845,83.626L68.083,83.41z" transform="matrix(0.125000,0.000000,0.000000,0.125000,-41.51768,12.75884)" style="font-size:12;fill:#fff"/><path id="path768" fill="url(#XMLID_14_)" d="M75.79,69.215c6.28-5.652,13.18-8.219,15.425-5.733l16.961,18.828l1.152,26.49l-17.973,0.784 L68.359,84.071l0.123-0.104C66.236,81.477,69.514,74.874,75.79,69.215z" transform="matrix(0.125000,0.000000,0.000000,0.125000,-41.51768,12.75884)" style="font-size:12;fill:url(#XMLID_14_)"/><path id="path778" fill="url(#XMLID_15_)" d="M68.083,83.41c1.732,1.772,5.994,0.776,10.643-2.194c1.541-0.982,3.132-2.193,4.677-3.586 c1.476-1.325,2.759-2.701,3.872-4.063c3.578-4.388,5.091-8.642,3.477-10.584l0.023-0.024l75.817,84.119 c0.635,2.262-0.588,6.498-3.754,10.357c-1.082,1.318-2.34,2.656-3.77,3.934c-1.588,1.434-3.219,2.676-4.807,3.676 c-4.74,3.006-9.303,4.199-11.016,2.301c-0.393-0.439-2.098-2.336-2.145-2.406L67.845,83.626L68.083,83.41z" transform="matrix(0.125000,0.000000,0.000000,0.125000,-41.51768,12.75884)" style="font-size:12;fill:url(#XMLID_15_)"/><path id="path790" fill="url(#XMLID_16_)" d="M74.357,90.713c0,0,6.036-0.212,10.685-3.182c1.542-0.983,3.132-2.193,4.677-3.586 c1.477-1.326,2.76-2.701,3.873-4.064c2.928-3.589,4.469-7.088,4.049-9.307l-6.865-7.617l-0.023,0.024 c1.614,1.942,0.102,6.196-3.477,10.584c-1.113,1.362-2.396,2.738-3.872,4.063c-1.545,1.393-3.136,2.604-4.677,3.586 c-4.648,2.971-8.91,3.967-10.643,2.194l-0.238,0.217l73.256,81.311c0.047,0.07,1.752,1.967,2.145,2.406 c0.342,0.377,0.799,0.627,1.344,0.771L74.357,90.713z" transform="matrix(0.125000,0.000000,0.000000,0.125000,-41.51768,12.75884)" style="font-size:12;fill:url(#XMLID_16_)"/><path id="path791" fill="#033" d="M172.035,175.354c-1.635,1.477-3.307,2.764-4.949,3.84l13.605,6.697l-5.096-14.156 C174.537,172.953,173.352,174.176,172.035,175.354z" transform="matrix(0.125000,0.000000,0.000000,0.125000,-41.51768,12.75884)" style="font-size:12;fill:#033"/><path id="path792" fill="#FFF" d="M163.121,157.053L86.968,73.93c0.1-0.12,0.213-0.242,0.307-0.364 c1.428-1.752,2.52-3.49,3.225-5.058l75.768,82.707C165.715,153.039,164.668,155.082,163.121,157.053z" opacity=".5" transform="matrix(0.125000,0.000000,0.000000,0.125000,-41.51768,12.75884)" style="font-size:12;opacity:.5;fill:#fff"/><path id="path793" fill="#FFF" d="M87.275,73.566c0.634-0.774,1.189-1.548,1.694-2.3l76.015,82.974 c-0.578,1.063-1.283,2.146-2.146,3.193c-0.744,0.896-1.566,1.805-2.465,2.697L84.152,76.932 C85.316,75.824,86.361,74.692,87.275,73.566z" opacity=".5" transform="matrix(0.125000,0.000000,0.000000,0.125000,-41.51768,12.75884)" style="font-size:12;opacity:.5;fill:#fff"/></g></svg>