<svg xmlns="http://www.w3.org/2000/svg" xmlns:pdf="http://ns.adobe.com/pdf/1.3/" xmlns:x="adobe:ns:meta/" xmlns:xap="http://ns.adobe.com/xap/1.0/" xmlns:xapGImg="http://ns.adobe.com/xap/1.0/g/img/" xmlns:xapMM="http://ns.adobe.com/xap/1.0/mm/" xmlns:xlink="http://www.w3.org/1999/xlink" xmlns:xml="http://www.w3.org/XML/1998/namespace" style="overflow:visible;enable-background:new 0 0 48 48" id="svg589" width="64" height="64" viewBox="0 0 48 48" xml:space="preserve"><metadata id="metadata590"><xpacket>begin=&apos; &apos; id=&apos;W5M0MpCehiHzreSzNTczkc9d&apos;</xpacket><x:xmpmeta x:xmptk="XMP toolkit 3.0-29, framework 1.6"/><xpacket>end=&apos;w&apos;</xpacket></metadata><g id="Layer_1"><path style="opacity:.2" id="path592" d="M9.416,5.208c-2.047,0-3.712,1.693-3.712,3.775V39.15c0,2.082,1.666,3.775,3.712,3.775h29.401 c2.047,0,3.712-1.693,3.712-3.775V8.983c0-2.082-1.665-3.775-3.712-3.775H9.416z"/><path style="opacity:.2" id="path593" d="M9.041,4.833c-2.047,0-3.712,1.693-3.712,3.775v30.167c0,2.082,1.666,3.775,3.712,3.775h29.401 c2.047,0,3.712-1.693,3.712-3.775V8.608c0-2.082-1.665-3.775-3.712-3.775H9.041z"/><path style="fill:#00008d" id="path594" d="M8.854,4.646c-2.047,0-3.712,1.693-3.712,3.775v30.167c0,2.082,1.666,3.775,3.712,3.775h29.401 c2.047,0,3.712-1.693,3.712-3.775V8.42c0-2.082-1.665-3.775-3.712-3.775H8.854z"/><path style="fill:#00008d" id="path595" d="M8.854,5.021c-1.84,0-3.337,1.525-3.337,3.4v30.167c0,1.875,1.497,3.4,3.337,3.4h29.401 c1.84,0,3.337-1.525,3.337-3.4V8.42c0-1.875-1.497-3.4-3.337-3.4H8.854z"/><path id="path166_1_" d="M40.654,38.588c0,1.36-1.074,2.463-2.399,2.463H8.854c-1.326,0-2.4-1.103-2.4-2.463V8.42 c0-1.36,1.074-2.462,2.4-2.462h29.401c1.325,0,2.399,1.103,2.399,2.462V38.588z" style="fill:#fff"/><linearGradient id="path166_2_" x1="-149.046" x2="-149.046" y1="251.144" y2="436.303" gradientTransform="matrix(0.1875 0 0 -0.1875 51.5 83.75)" gradientUnits="userSpaceOnUse"><stop style="stop-color:#b4e2ff" id="stop598" offset="0"/><stop style="stop-color:#006dff" id="stop599" offset="1"/></linearGradient><path id="path166" d="M40.654,38.588c0,1.36-1.074,2.463-2.399,2.463H8.854c-1.326,0-2.4-1.103-2.4-2.463V8.42 c0-1.36,1.074-2.462,2.4-2.462h29.401c1.325,0,2.399,1.103,2.399,2.462V38.588z" style="fill:url(#path166_2_)"/><path style="fill:#fff" id="path604" d="M8.854,6.521c-1.013,0-1.837,0.852-1.837,1.9v30.167c0,1.048,0.824,1.9,1.837,1.9h29.401 c1.013,0,1.837-0.853,1.837-1.9V8.42c0-1.048-0.824-1.9-1.837-1.9H8.854z"/><linearGradient id="XMLID_1_" x1="7.306" x2="50.773" y1="7.256" y2="50.723" gradientUnits="userSpaceOnUse"><stop style="stop-color:#94caff" id="stop606" offset="0"/><stop style="stop-color:#006dff" id="stop607" offset="1"/></linearGradient><path style="fill:url(#XMLID_1_)" id="path611" d="M8.854,6.521c-1.013,0-1.837,0.852-1.837,1.9v30.167c0,1.048,0.824,1.9,1.837,1.9h29.401 c1.013,0,1.837-0.853,1.837-1.9V8.42c0-1.048-0.824-1.9-1.837-1.9H8.854z"/><linearGradient id="XMLID_2_" x1="23.504" x2="23.504" y1="2.187" y2="34.437" gradientUnits="userSpaceOnUse"><stop style="stop-color:#428aff" id="stop613" offset="0"/><stop style="stop-color:#c9e6ff" id="stop614" offset="1"/></linearGradient><path style="fill:url(#XMLID_2_)" id="path618" d="M36.626,6.861c0,0-26.184,0-26.914,0c0,0.704,0,16.59,0,17.294c0.721,0,26.864,0,27.583,0 c0-0.704,0-16.59,0-17.294C36.988,6.861,36.626,6.861,36.626,6.861z"/><polygon id="path186_1_" points="35.809 6.486 10.221 6.486 10.221 23.405 36.788 23.405 36.788 6.486" style="fill:#fff"/><linearGradient id="path186_2_" x1="-104.593" x2="-206.815" y1="411.67" y2="309.448" gradientTransform="matrix(0.1875 0 0 -0.1875 51.5 83.75)" gradientUnits="userSpaceOnUse"><stop style="stop-color:#ccc" id="stop621" offset="0"/><stop style="stop-color:#f0f0f0" id="stop622" offset="1"/></linearGradient><polygon id="path186" points="35.809 6.486 10.221 6.486 10.221 23.405 36.788 23.405 36.788 6.486" style="fill:url(#path186_2_)"/><path style="fill:#fff;stroke:#fff;stroke-width:.1875" id="path627" d="M11.488,7.019c0,0.698,0,14.542,0,15.239c0.716,0,23.417,0,24.133,0c0-0.698,0-14.541,0-15.239 C34.904,7.019,12.204,7.019,11.488,7.019z"/><linearGradient id="XMLID_3_" x1="34.597" x2="18.409" y1="3.597" y2="19.785" gradientUnits="userSpaceOnUse"><stop style="stop-color:#fff" id="stop629" offset="0"/><stop style="stop-color:#e6edff" id="stop630" offset=".551"/><stop style="stop-color:#fff" id="stop631" offset="1"/></linearGradient><path style="fill:url(#XMLID_3_);stroke:#fff;stroke-width:.1875" id="path637" d="M11.488,7.019c0,0.698,0,14.542,0,15.239c0.716,0,23.417,0,24.133,0c0-0.698,0-14.541,0-15.239 C34.904,7.019,12.204,7.019,11.488,7.019z"/><linearGradient id="path205_1_" x1="-174.441" x2="-108.879" y1="300.091" y2="210.207" gradientTransform="matrix(0.1875 0 0 -0.1875 51.5 83.75)" gradientUnits="userSpaceOnUse"><stop style="stop-color:#039" id="stop639" offset="0"/><stop style="stop-color:#0035ed" id="stop640" offset=".27"/><stop style="stop-color:#57adff" id="stop641" offset="1"/></linearGradient><rect id="path205" width="22.007" height="13.978" x="12.154" y="26.479" style="fill:url(#path205_1_)"/><linearGradient id="XMLID_4_" x1="21.869" x2="21.869" y1="25.188" y2="44.625" gradientUnits="userSpaceOnUse"><stop style="stop-color:#dfdfdf" id="stop649" offset="0"/><stop style="stop-color:#7d7d99" id="stop650" offset="1"/></linearGradient><path style="fill:url(#XMLID_4_)" id="path654" d="M13.244,27.021c-0.311,0-0.563,0.252-0.563,0.563v13.104c0,0.312,0.252,0.563,0.563,0.563h17.249 c0.311,0,0.563-0.251,0.563-0.563V27.583c0-0.311-0.252-0.563-0.563-0.563H13.244z M18.85,30.697c0,0.871,0,5.078,0,5.949 c-0.683,0-2.075,0-2.759,0c0-0.871,0-5.078,0-5.949C16.775,30.697,18.167,30.697,18.85,30.697z"/><linearGradient id="XMLID_5_" x1="-158.034" x2="-158.034" y1="288.068" y2="231.322" gradientTransform="matrix(0.1875 0 0 -0.1875 51.5 83.75)" gradientUnits="userSpaceOnUse"><stop style="stop-color:#f0f0f0" id="stop656" offset="0"/><stop style="stop-color:#cecedb" id="stop657" offset=".635"/><stop style="stop-color:#b1b1c5" id="stop658" offset=".86"/><stop style="stop-color:#fff" id="stop659" offset="1"/></linearGradient><path style="fill:url(#XMLID_5_)" id="path667" d="M13.244,27.583v13.104h17.249V27.583H13.244z M19.413,37.209h-3.884v-7.074h3.884V37.209z"/><linearGradient id="path228_1_" x1="-68.149" x2="-68.149" y1="388.456" y2="404.669" gradientTransform="matrix(0.1875 0 0 -0.1875 51.5 83.75)" gradientUnits="userSpaceOnUse"><stop style="stop-color:#39f" id="stop669" offset="0"/><stop style="stop-color:#000" id="stop670" offset="1"/></linearGradient><rect id="path228" width="1.784" height="1.785" x="37.83" y="9.031" style="fill:url(#path228_1_)"/><polyline id="_x3C_Slice_x3E_" points="0 48 0 0 48 0 48 48" style="fill:none"/></g></svg>